<svg xmlns="http://www.w3.org/2000/svg" viewBox="0 0 256 256" width="256" height="256" role="img" aria-label="Quotura logo">
  <defs>
    <linearGradient id="g" x1="0" x2="1" y1="0" y2="1">
      <stop offset="0" stop-color="#7c3aed"/>
      <stop offset="1" stop-color="#f43f5e"/>
    </linearGradient>
  </defs>
  <rect x="0" y="0" width="256" height="256" rx="48" fill="url(#g)"/>
  <g fill="#fff">
    <circle cx="88" cy="96" r="28" opacity="0.95"/>
    <circle cx="160" cy="96" r="28" opacity="0.95"/>
    <path d="M68 170c10-6 20-16 24-32 3 0 6 0 8 0-6 22-18 36-32 44v10h-16v-14c0-3 2-6 5-8l11-6z" opacity="0.95"/>
    <path d="M180 170c10-6 20-16 24-32 3 0 6 0 8 0-6 22-18 36-32 44v10h-16v-14c0-3 2-6 5-8l11-6z" opacity="0.95"/>
  </g>
</svg>